<svg xmlns="http://www.w3.org/2000/svg" xmlns:xlink="http://www.w3.org/1999/xlink" preserveAspectRatio="xMidYMid"
     width="23" height="20" viewBox="0 0 23 20">
    <defs>
        <style>
            .cls-1 {
            fill: #1693f7;
            fill-rule: evenodd;
            }
        </style>
    </defs>
    <path d="M18.500,20.000 C16.015,20.000 14.000,17.985 14.000,15.500 C14.000,13.015 16.015,11.000 18.500,11.000 C20.985,11.000 23.000,13.015 23.000,15.500 C23.000,17.985 20.985,20.000 18.500,20.000 ZM18.500,12.125 C16.636,12.125 15.125,13.636 15.125,15.500 C15.125,17.364 16.636,18.875 18.500,18.875 C20.364,18.875 21.875,17.364 21.875,15.500 C21.875,13.636 20.364,12.125 18.500,12.125 ZM19.000,16.000 L19.000,18.000 L18.000,18.000 L18.000,16.000 L16.000,16.000 L16.000,15.000 L18.000,15.000 L18.000,13.000 L19.000,13.000 L19.000,15.000 L21.000,15.000 L21.000,16.000 L19.000,16.000 ZM14.530,10.387 C13.998,10.800 13.519,11.276 13.137,11.832 C12.054,11.302 10.816,11.000 9.500,11.000 C5.253,11.000 1.809,14.134 1.809,18.000 L12.501,18.000 C12.814,18.750 13.269,19.423 13.824,20.000 L-0.000,20.000 C-0.000,19.366 -0.000,18.716 -0.000,18.000 C-0.000,14.223 2.458,10.995 5.939,9.660 C4.762,8.651 4.000,7.172 4.000,5.500 C4.000,2.462 6.462,-0.000 9.500,-0.000 C12.537,-0.000 15.000,2.462 15.000,5.500 C15.000,7.172 14.238,8.651 13.061,9.660 C13.578,9.858 14.063,10.110 14.530,10.387 ZM9.500,2.000 C7.567,2.000 6.000,3.567 6.000,5.500 C6.000,7.433 7.567,9.000 9.500,9.000 C11.433,9.000 13.000,7.433 13.000,5.500 C13.000,3.567 11.433,2.000 9.500,2.000 Z"
          class="cls-1"/>
</svg>
