<?xml version="1.0" encoding="iso-8859-1"?>
<!-- Generator: Adobe Illustrator 18.0.0, SVG Export Plug-In . SVG Version: 6.00 Build 0)  -->
<!DOCTYPE svg PUBLIC "-//W3C//DTD SVG 1.1//EN" "http://www.w3.org/Graphics/SVG/1.1/DTD/svg11.dtd">
<svg version="1.1" id="Capa_1" xmlns="http://www.w3.org/2000/svg" xmlns:xlink="http://www.w3.org/1999/xlink" x="0px" y="0px"
	 viewBox="0 0 22 32" style="enable-background:new 0 0 22 32;" xml:space="preserve">
<g id="_x34__21_">
	<g>
		<path style="fill-rule:evenodd;clip-rule:evenodd;" d="M17,22H5c-0.552,0-1,0.448-1,1c0,0.552,0.448,1,1,1h12c0.552,0,1-0.448,1-1
			C18,22.448,17.552,22,17,22z M17,16H5c-0.552,0-1,0.448-1,1c0,0.552,0.448,1,1,1h12c0.552,0,1-0.448,1-1
			C18,16.448,17.552,16,17,16z M17,10H5c-0.552,0-1,0.448-1,1c0,0.552,0.448,1,1,1h12c0.552,0,1-0.448,1-1
			C18,10.448,17.552,10,17,10z M18,2V0h-2v2h-4V0h-2v2H6V0H4v2C1.791,2,0,3.791,0,6v22c0,2.209,1.791,4,4,4h14c2.209,0,4-1.791,4-4
			V6C22,3.791,20.209,2,18,2z M20,28c0,1.104-0.895,2-2,2H4c-1.105,0-2-0.896-2-2V6c0-1.105,0.895-2,2-2h14c1.105,0,2,0.896,2,2V28z
			"/>
	</g>
</g>
<g>
</g>
<g>
</g>
<g>
</g>
<g>
</g>
<g>
</g>
<g>
</g>
<g>
</g>
<g>
</g>
<g>
</g>
<g>
</g>
<g>
</g>
<g>
</g>
<g>
</g>
<g>
</g>
<g>
</g>
</svg>
