<?xml version="1.0" encoding="utf-8"?>
<!-- Generator: Adobe Illustrator 16.0.4, SVG Export Plug-In . SVG Version: 6.00 Build 0)  -->
<!DOCTYPE svg PUBLIC "-//W3C//DTD SVG 1.1//EN" "http://www.w3.org/Graphics/SVG/1.1/DTD/svg11.dtd">
<svg version="1.1" id="Layer_1" xmlns="http://www.w3.org/2000/svg" xmlns:xlink="http://www.w3.org/1999/xlink" x="0px" y="0px"
	 width="19.041px" height="26.354px" viewBox="0 0 19.041 26.354" enable-background="new 0 0 19.041 26.354" xml:space="preserve">
<path d="M18.301,3.11l0.74-1.021l-1.763-1.277l-0.74,1.021l-0.586-0.425l-1.322-0.96L14.013,0L8.418,8.827l0.529,0.384l5.119-7.415
	l0.934,0.676l-9.957,13.73c-0.279-0.145-0.612-0.096-0.786,0.144c-0.173,0.238-0.114,0.569,0.107,0.791l-0.011,0.016l1.935,1.403
	l1.001,0.727h0.001l0.134,0.097l0.017-0.025c0.268,0.11,0.569,0.055,0.73-0.169c0.161-0.223,0.123-0.525-0.064-0.747L18.903,3.549
	L18.301,3.11z M7.601,18.035l-2.025-1.471L15.978,2.222l2.026,1.47L7.601,18.035z M15.546,3.615l0.975,0.708l-3.647,5.029
	l-0.976-0.708L15.546,3.615z M0.779,23.4l0.148,0.122l-0.43,1.057l0.251,0.182L0,26.121l0.321,0.232l1.008-1.173l0.279,0.203
	l0.747-0.7l0.219,0.178l4.537-5.054L4.043,17.58L0.779,23.4z M6.153,19.909l-3.649,4.063l-0.897-0.729l2.644-4.715L6.153,19.909z"/>
</svg>
