<?xml version="1.0" standalone="no"?><!DOCTYPE svg PUBLIC "-//W3C//DTD SVG 1.1//EN" "http://www.w3.org/Graphics/SVG/1.1/DTD/svg11.dtd"><svg t="1489482623392" class="icon" style="" viewBox="0 0 1024 1024" version="1.1" xmlns="http://www.w3.org/2000/svg" p-id="16754" xmlns:xlink="http://www.w3.org/1999/xlink" width="200" height="200"><defs><style type="text/css"></style></defs><path d="M360.288205 451.839829c0.12689-2.475378 0.192382-4.991688 0.192382-7.478322 0-60.892859-37.9708-113.153106-91.675956-134.775566 26.574239-17.740036 44.110637-47.976688 44.110637-82.231863 0-54.499242-44.38386-98.838076-98.940406-98.838076-54.556547 0-98.94143 44.338834-98.94143 98.838076 0 34.183544 17.46272 64.36596 43.942815 82.121346-53.849442 21.553898-91.948155 73.889871-91.948155 134.88506 0 2.476401 0.064468 4.988618 0.190335 7.467065l1.237177 24.309662L359.040794 476.137211 360.288205 451.839829zM213.975884 179.739641c26.311249 0 47.716768 21.360494 47.716768 47.614437s-21.405519 47.614437-47.716768 47.614437c-26.311249 0-47.717791-21.360494-47.717791-47.614437S187.663612 179.739641 213.975884 179.739641zM120.300388 424.914596c9.112542-42.63196 47.554062-74.735122 93.454462-74.735122 45.9004 0 84.342943 32.103162 93.455485 74.735122L120.300388 424.914596zM368.934119 312.769446l286.525736 0c14.145162 0 25.611308-11.467169 25.611308-25.611308s-11.466146-25.611308-25.611308-25.611308l-286.525736 0c-14.145162 0-25.611308 11.467169-25.611308 25.611308S354.788957 312.769446 368.934119 312.769446zM567.828005 728.618573c26.574239-17.740036 44.110637-47.976688 44.110637-82.231863 0-54.500265-44.38386-98.838076-98.940406-98.838076-54.556547 0-98.94143 44.337811-98.94143 98.838076 0 34.183544 17.46272 64.36596 43.942815 82.121346-53.849442 21.553898-91.948155 73.889871-91.948155 134.88506 0 2.484587 0.064468 4.998851 0.191358 7.474228l1.243317 24.302499 290.575981 0 1.248434-24.296359c0.127913-2.474354 0.192382-4.990664 0.192382-7.480368C659.50396 802.500257 621.534184 750.240009 567.828005 728.618573zM512.999259 598.771249c26.311249 0 47.716768 21.35947 47.716768 47.614437s-21.405519 47.614437-47.716768 47.614437c-26.311249 0-47.717791-21.35947-47.717791-47.614437S486.68801 598.771249 512.999259 598.771249zM419.324786 843.946204c9.112542-42.63196 47.554062-74.735122 93.454462-74.735122 45.9004 0 84.342943 32.103162 93.454462 74.735122L419.324786 843.946204zM865.392144 309.585941c26.574239-17.740036 44.110637-47.976688 44.110637-82.231863 0-54.499242-44.38386-98.838076-98.940406-98.838076s-98.94143 44.338834-98.94143 98.838076c0 34.183544 17.46272 64.36596 43.942815 82.121346-53.849442 21.553898-91.948155 73.889871-91.948155 134.88506 0 2.478448 0.064468 4.989641 0.190335 7.467065l1.237177 24.309662 290.583145 0 1.248434-24.297382c0.127913-2.473331 0.192382-4.989641 0.192382-7.479345C957.0681 383.468648 919.0973 331.207377 865.392144 309.585941zM810.563398 179.739641c26.311249 0 47.716768 21.360494 47.716768 47.614437s-21.405519 47.614437-47.716768 47.614437-47.717791-21.360494-47.717791-47.614437S784.252149 179.739641 810.563398 179.739641zM716.888925 424.914596c9.111518-42.63196 47.554062-74.735122 93.453439-74.735122 45.9004 0 84.342943 32.103162 93.454462 74.735122L716.888925 424.914596zM394.506541 740.500181c6.554276 0 13.109576-2.499937 18.110473-7.500834 10.001795-10.001795 10.001795-26.219151 0-36.220946l-202.604394-202.603371c-10.001795-10.001795-26.218128-10.001795-36.220946 0s-10.001795 26.219151 0 36.220946l202.604394 202.603371C381.397988 738.000244 387.952264 740.500181 394.506541 740.500181zM817.452295 494.175029 614.846878 696.777377c-10.000771 10.001795-10.000771 26.219151 0 36.220946 5.001921 5.001921 11.555174 7.500834 18.110473 7.500834 6.553253 0 13.110599-2.50096 18.10945-7.500834l202.605418-202.603371c10.000771-10.001795 10.000771-26.219151 0-36.220946C843.670423 484.173235 827.452044 484.172211 817.452295 494.175029z" p-id="16755"></path></svg>